<?xml version="1.0" encoding="utf-8" ?>
<!DOCTYPE svg PUBLIC "-//W3C//DTD SVG 1.1//EN" "http://www.w3.org/Graphics/SVG/1.1/DTD/svg11.dtd">
<svg height="484" version="1.1" width="1192" xmlns="http://www.w3.org/2000/svg">
<polygon fill="#ffffff" points="58,214 440,214 440,237 489,237 489,469 58,469 58,214" stroke="#ffffff" stroke-width="1"/>
<rect fill="none" height="23" stroke="#000000" stroke-width="1" width="382" x="58" y="214"/>
<text font-family="Dialog" font-size="12" x="63" y="227">
application</text>
<rect fill="none" height="232" stroke="#000000" stroke-width="1" width="431" x="58" y="237"/>
<polygon fill="#ffffff" points="658,206 1128,206 1128,229 1177,229 1177,469 658,469 658,206" stroke="#ffffff" stroke-width="1"/>
<rect fill="none" height="23" stroke="#000000" stroke-width="1" width="470" x="658" y="206"/>
<text font-family="Dialog" font-size="12" x="663" y="219">
persistence</text>
<rect fill="none" height="240" stroke="#000000" stroke-width="1" width="519" x="658" y="229"/>
<polygon fill="#ffffff" points="426,14 552,14 552,37 601,37 601,141 426,141 426,14" stroke="#ffffff" stroke-width="1"/>
<rect fill="none" height="23" stroke="#000000" stroke-width="1" width="126" x="426" y="14"/>
<text font-family="Dialog" font-size="12" x="431" y="27">
web</text>
<rect fill="none" height="104" stroke="#000000" stroke-width="1" width="175" x="426" y="37"/>
<rect fill="#ffffff" height="64" stroke="#ffffff" stroke-width="1" width="104" x="362" y="374"/>
<rect fill="none" height="64" stroke="#000000" stroke-width="1" width="104" x="362" y="374"/>
<text font-family="Dialog" font-size="12" x="370" y="406">
InteractorDao</text>
<text font-family="Dialog" font-size="12" x="366" y="388">
&lt;&lt;interface&gt;&gt;</text>
<rect fill="#000000" height="1" stroke="#000000" stroke-width="1" width="104" x="362" y="416"/>
<rect fill="#ffffff" height="67" stroke="#ffffff" stroke-width="1" width="175" x="682" y="358"/>
<rect fill="none" height="67" stroke="#000000" stroke-width="1" width="175" x="682" y="358"/>
<text font-family="Dialog" font-size="12" x="687" y="371">
InteractorDaoImplentation</text>
<rect fill="#000000" height="1" stroke="#000000" stroke-width="1" width="175" x="682" y="381"/>
<rect fill="#000000" height="1" stroke="#000000" stroke-width="1" width="175" x="682" y="402"/>
<line fill="#000000" stroke="#000000" stroke-width="1" x1="682" x2="677" y1="398" y2="398"/>
<line fill="#000000" stroke="#000000" stroke-width="1" x1="672" x2="667" y1="398" y2="398"/>
<line fill="#000000" stroke="#000000" stroke-width="1" x1="662" x2="657" y1="398" y2="398"/>
<line fill="#000000" stroke="#000000" stroke-width="1" x1="652" x2="647" y1="398" y2="398"/>
<line fill="#000000" stroke="#000000" stroke-width="1" x1="642" x2="637" y1="398" y2="398"/>
<line fill="#000000" stroke="#000000" stroke-width="1" x1="632" x2="627" y1="398" y2="398"/>
<line fill="#000000" stroke="#000000" stroke-width="1" x1="622" x2="617" y1="398" y2="398"/>
<line fill="#000000" stroke="#000000" stroke-width="1" x1="612" x2="607" y1="398" y2="398"/>
<line fill="#000000" stroke="#000000" stroke-width="1" x1="602" x2="597" y1="398" y2="398"/>
<line fill="#000000" stroke="#000000" stroke-width="1" x1="592" x2="587" y1="398" y2="398"/>
<line fill="#000000" stroke="#000000" stroke-width="1" x1="582" x2="577" y1="398" y2="398"/>
<line fill="#000000" stroke="#000000" stroke-width="1" x1="572" x2="567" y1="398" y2="398"/>
<line fill="#000000" stroke="#000000" stroke-width="1" x1="562" x2="557" y1="398" y2="398"/>
<line fill="#000000" stroke="#000000" stroke-width="1" x1="552" x2="547" y1="398" y2="398"/>
<line fill="#000000" stroke="#000000" stroke-width="1" x1="542" x2="537" y1="398" y2="398"/>
<line fill="#000000" stroke="#000000" stroke-width="1" x1="532" x2="527" y1="398" y2="398"/>
<line fill="#000000" stroke="#000000" stroke-width="1" x1="522" x2="517" y1="398" y2="398"/>
<line fill="#000000" stroke="#000000" stroke-width="1" x1="512" x2="507" y1="398" y2="398"/>
<line fill="#000000" stroke="#000000" stroke-width="1" x1="502" x2="497" y1="398" y2="398"/>
<line fill="#000000" stroke="#000000" stroke-width="1" x1="492" x2="487" y1="398" y2="398"/>
<line fill="#000000" stroke="#000000" stroke-width="1" x1="482" x2="477" y1="398" y2="398"/>
<line fill="#000000" stroke="#000000" stroke-width="1" x1="472" x2="467" y1="398" y2="398"/>
<polygon fill="#ffffff" points="465,398 477,391 477,405" stroke="#ffffff" stroke-width="1"/>
<polygon fill="none" points="465,398 477,391 477,405" stroke="#000000" stroke-width="1"/>
<text font-family="Dialog" font-size="12" x="534" y="385">
&lt;&lt;realize&gt;&gt;</text>
<rect fill="#ffffff" height="67" stroke="#ffffff" stroke-width="1" width="121" x="202" y="254"/>
<rect fill="none" height="67" stroke="#000000" stroke-width="1" width="121" x="202" y="254"/>
<text font-family="Dialog" font-size="12" x="207" y="286">
RequestBoundary</text>
<text font-family="Dialog" font-size="12" x="214" y="268">
&lt;&lt;interface&gt;&gt;</text>
<rect fill="#000000" height="1" stroke="#000000" stroke-width="1" width="121" x="202" y="296"/>
<text font-family="Dialog" font-size="12" x="206" y="310">
getRequest()</text>
<rect fill="#ffffff" height="107" stroke="#ffffff" stroke-width="1" width="112" x="210" y="334"/>
<rect fill="none" height="107" stroke="#000000" stroke-width="1" width="112" x="210" y="334"/>
<text font-family="Dialog" font-size="12" x="235" y="366">
Interactor</text>
<text font-family="Dialog" font-size="12" x="218" y="348">
&lt;&lt;interface&gt;&gt;</text>
<rect fill="#000000" height="1" stroke="#000000" stroke-width="1" width="112" x="210" y="376"/>
<text font-family="Dialog" font-size="12" x="214" y="390">
setDao()</text>
<text font-family="Dialog" font-size="12" x="214" y="406">
getResponse()</text>
<rect fill="#ffffff" height="67" stroke="#ffffff" stroke-width="1" width="110" x="450" y="46"/>
<rect fill="none" height="67" stroke="#000000" stroke-width="1" width="110" x="450" y="46"/>
<text font-family="Dialog" font-size="12" x="455" y="59">
InteractorCallee</text>
<rect fill="#000000" height="1" stroke="#000000" stroke-width="1" width="110" x="450" y="69"/>
<rect fill="#000000" height="1" stroke="#000000" stroke-width="1" width="110" x="450" y="90"/>
<line fill="#000000" stroke="#000000" stroke-width="1" x1="522" x2="522" y1="112" y2="117"/>
<line fill="#000000" stroke="#000000" stroke-width="1" x1="522" x2="522" y1="122" y2="127"/>
<line fill="#000000" stroke="#000000" stroke-width="1" x1="522" x2="522" y1="132" y2="137"/>
<line fill="#000000" stroke="#000000" stroke-width="1" x1="522" x2="522" y1="142" y2="147"/>
<line fill="#000000" stroke="#000000" stroke-width="1" x1="522" x2="522" y1="152" y2="157"/>
<line fill="#000000" stroke="#000000" stroke-width="1" x1="522" x2="522" y1="162" y2="166"/>
<line fill="#000000" stroke="#000000" stroke-width="1" x1="522" x2="517" y1="166" y2="166"/>
<line fill="#000000" stroke="#000000" stroke-width="1" x1="512" x2="507" y1="166" y2="166"/>
<line fill="#000000" stroke="#000000" stroke-width="1" x1="502" x2="497" y1="166" y2="166"/>
<line fill="#000000" stroke="#000000" stroke-width="1" x1="492" x2="487" y1="166" y2="166"/>
<line fill="#000000" stroke="#000000" stroke-width="1" x1="482" x2="477" y1="166" y2="166"/>
<line fill="#000000" stroke="#000000" stroke-width="1" x1="472" x2="467" y1="166" y2="166"/>
<line fill="#000000" stroke="#000000" stroke-width="1" x1="462" x2="457" y1="166" y2="166"/>
<line fill="#000000" stroke="#000000" stroke-width="1" x1="452" x2="447" y1="166" y2="166"/>
<line fill="#000000" stroke="#000000" stroke-width="1" x1="442" x2="437" y1="166" y2="166"/>
<line fill="#000000" stroke="#000000" stroke-width="1" x1="432" x2="427" y1="166" y2="166"/>
<line fill="#000000" stroke="#000000" stroke-width="1" x1="422" x2="417" y1="166" y2="166"/>
<line fill="#000000" stroke="#000000" stroke-width="1" x1="412" x2="407" y1="166" y2="166"/>
<line fill="#000000" stroke="#000000" stroke-width="1" x1="402" x2="397" y1="166" y2="166"/>
<line fill="#000000" stroke="#000000" stroke-width="1" x1="392" x2="387" y1="166" y2="166"/>
<line fill="#000000" stroke="#000000" stroke-width="1" x1="382" x2="377" y1="166" y2="166"/>
<line fill="#000000" stroke="#000000" stroke-width="1" x1="372" x2="367" y1="166" y2="166"/>
<line fill="#000000" stroke="#000000" stroke-width="1" x1="362" x2="357" y1="166" y2="166"/>
<line fill="#000000" stroke="#000000" stroke-width="1" x1="352" x2="347" y1="166" y2="166"/>
<line fill="#000000" stroke="#000000" stroke-width="1" x1="342" x2="337" y1="166" y2="166"/>
<line fill="#000000" stroke="#000000" stroke-width="1" x1="332" x2="327" y1="166" y2="166"/>
<line fill="#000000" stroke="#000000" stroke-width="1" x1="322" x2="317" y1="166" y2="166"/>
<line fill="#000000" stroke="#000000" stroke-width="1" x1="312" x2="307" y1="166" y2="166"/>
<line fill="#000000" stroke="#000000" stroke-width="1" x1="302" x2="297" y1="166" y2="166"/>
<line fill="#000000" stroke="#000000" stroke-width="1" x1="292" x2="287" y1="166" y2="166"/>
<line fill="#000000" stroke="#000000" stroke-width="1" x1="282" x2="277" y1="166" y2="166"/>
<line fill="#000000" stroke="#000000" stroke-width="1" x1="272" x2="267" y1="166" y2="166"/>
<line fill="#000000" stroke="#000000" stroke-width="1" x1="266" x2="266" y1="166" y2="171"/>
<line fill="#000000" stroke="#000000" stroke-width="1" x1="266" x2="266" y1="176" y2="181"/>
<line fill="#000000" stroke="#000000" stroke-width="1" x1="266" x2="266" y1="186" y2="191"/>
<line fill="#000000" stroke="#000000" stroke-width="1" x1="266" x2="266" y1="196" y2="201"/>
<line fill="#000000" stroke="#000000" stroke-width="1" x1="266" x2="266" y1="206" y2="211"/>
<line fill="#000000" stroke="#000000" stroke-width="1" x1="266" x2="266" y1="216" y2="221"/>
<line fill="#000000" stroke="#000000" stroke-width="1" x1="266" x2="266" y1="226" y2="231"/>
<line fill="#000000" stroke="#000000" stroke-width="1" x1="266" x2="266" y1="236" y2="241"/>
<line fill="#000000" stroke="#000000" stroke-width="1" x1="266" x2="266" y1="246" y2="251"/>
<polygon fill="#ffffff" points="266,254 259,242 273,242" stroke="#ffffff" stroke-width="1"/>
<polygon fill="none" points="266,254 259,242 273,242" stroke="#000000" stroke-width="1"/>
<text font-family="Dialog" font-size="12" x="337" y="153">
&lt;&lt;realize&gt;&gt;</text>
<polyline fill="none" points="559,70 586,70 586,350 321,350" stroke="#000000" stroke-width="1"/>
<line fill="#000000" stroke="#000000" stroke-width="1" x1="333" x2="321" y1="343" y2="350"/>
<line fill="#000000" stroke="#000000" stroke-width="1" x1="333" x2="321" y1="357" y2="350"/>
<polyline fill="none" points="210,398 106,398 106,286 202,286" stroke="#000000" stroke-width="1"/>
<line fill="#000000" stroke="#000000" stroke-width="1" x1="190" x2="202" y1="293" y2="286"/>
<line fill="#000000" stroke="#000000" stroke-width="1" x1="190" x2="202" y1="279" y2="286"/>
<rect fill="#ffffff" height="64" stroke="#ffffff" stroke-width="1" width="104" x="714" y="246"/>
<rect fill="none" height="64" stroke="#000000" stroke-width="1" width="104" x="714" y="246"/>
<text font-family="Dialog" font-size="12" x="730" y="278">
DaoFactory</text>
<text font-family="Dialog" font-size="12" x="718" y="260">
&lt;&lt;interface&gt;&gt;</text>
<rect fill="#000000" height="1" stroke="#000000" stroke-width="1" width="104" x="714" y="288"/>
<polyline fill="none" points="321,406 362,406" stroke="#000000" stroke-width="1"/>
<line fill="#000000" stroke="#000000" stroke-width="1" x1="350" x2="362" y1="413" y2="406"/>
<line fill="#000000" stroke="#000000" stroke-width="1" x1="350" x2="362" y1="399" y2="406"/>
<polyline fill="none" points="762,309 762,358" stroke="#000000" stroke-width="1"/>
<line fill="#000000" stroke="#000000" stroke-width="1" x1="755" x2="762" y1="346" y2="358"/>
<line fill="#000000" stroke="#000000" stroke-width="1" x1="769" x2="762" y1="346" y2="358"/>
<text font-family="Dialog" font-size="12" x="777" y="346">
0..*</text>
<polyline fill="none" points="559,62 762,62 762,246" stroke="#000000" stroke-width="1"/>
<line fill="#000000" stroke="#000000" stroke-width="1" x1="755" x2="762" y1="234" y2="246"/>
<line fill="#000000" stroke="#000000" stroke-width="1" x1="769" x2="762" y1="234" y2="246"/>
</svg>
